<svg width="20" height="20" viewBox="0 0 20 20" fill="none" xmlns="http://www.w3.org/2000/svg">
<path d="M15.8331 17.1534L13.6816 15.0116M4.16642 17.1534L6.31795 15.0116M9.99975 7.98672V10.4867L11.2013 11.6686M5.61862 3.33327C5.30606 3.02072 4.88214 2.84512 4.4401 2.84512C3.99808 2.84512 3.57415 3.02072 3.2616 3.33327C2.94904 3.64584 2.77345 4.06976 2.77344 4.51179C2.77344 4.95382 2.94904 5.37774 3.2616 5.6903M16.7382 5.68892C17.0508 5.37637 17.2263 4.95244 17.2263 4.51042C17.2263 4.06838 17.0508 3.64447 16.7382 3.3319C16.4256 3.01934 16.0017 2.84375 15.5597 2.84375C15.1176 2.84375 14.6937 3.01934 14.3812 3.3319M15.8331 10.4867C15.8331 13.7084 13.2214 16.32 9.99975 16.32C6.77809 16.32 4.16642 13.7084 4.16642 10.4867C4.16642 7.26507 6.77809 4.65339 9.99975 4.65339C13.2214 4.65339 15.8331 7.26507 15.8331 10.4867Z" stroke="white" stroke-width="1.3" stroke-linecap="round" stroke-linejoin="round"/>
</svg>
