<svg width="19" height="19" viewBox="0 0 19 19" fill="none" xmlns="http://www.w3.org/2000/svg">
<path d="M5.28125 0.07827C5.21094 0.121239 5.12109 0.211082 5.07812 0.281395C5.00391 0.402489 5 0.480614 5 1.56264C5 2.64468 5.00391 2.7228 5.07812 2.84389C5.19531 3.03139 5.37109 3.12514 5.625 3.12514C5.87891 3.12514 6.05469 3.03139 6.17188 2.84389C6.24609 2.7228 6.25 2.64468 6.25 1.56264C6.25 0.480614 6.24609 0.402489 6.17188 0.281395C6.05469 0.093895 5.87891 0.000144958 5.625 0.000144958C5.48047 0.000144958 5.36719 0.0235825 5.28125 0.07827Z" fill="white"/>
<path d="M1.53125 1.32827C1.34375 1.44155 1.25 1.62124 1.25 1.86733C1.25 1.98061 1.27344 2.12124 1.30469 2.17983C1.37109 2.30483 2.71875 3.64468 2.83984 3.70718C2.88672 3.73061 3.01953 3.75014 3.13281 3.75014C3.51172 3.75014 3.75 3.51186 3.75 3.13296C3.75 3.01968 3.72656 2.87905 3.69531 2.82046C3.62891 2.69546 2.28125 1.35561 2.16016 1.29311C2.01953 1.2228 1.67578 1.24233 1.53125 1.32827Z" fill="white"/>
<path d="M9.08203 1.29311C8.96094 1.35952 7.61719 2.70327 7.55469 2.82046C7.52344 2.87905 7.5 3.01968 7.5 3.13296C7.5 3.51186 7.73828 3.75014 8.11719 3.75014C8.23047 3.75014 8.36328 3.73061 8.41016 3.70718C8.53125 3.64468 9.87891 2.30483 9.94531 2.17983C9.97656 2.12124 10 1.98061 10 1.86733C10 1.48452 9.76172 1.25014 9.375 1.25014C9.25781 1.25014 9.125 1.27358 9.08203 1.29311Z" fill="white"/>
<path d="M0.28125 5.07827C0.09375 5.19546 0 5.37124 0 5.62514C0 5.87905 0.09375 6.05483 0.28125 6.17202C0.402344 6.24624 0.480469 6.25014 1.5625 6.25014C2.64453 6.25014 2.72266 6.24624 2.84375 6.17202C3.03125 6.05483 3.125 5.87905 3.125 5.62514C3.125 5.37124 3.03125 5.19546 2.84375 5.07827C2.72266 5.00405 2.64453 5.00014 1.5625 5.00014C0.480469 5.00014 0.402344 5.00405 0.28125 5.07827Z" fill="white"/>
<path d="M5.28125 5.07813C5.09766 5.19141 5 5.375 5 5.60547C5 5.75 5.49609 7.44922 6.89062 12.1016C7.92969 15.5664 8.8125 18.4453 8.84766 18.5C9.00781 18.7461 9.44922 18.8359 9.71484 18.6719C9.80469 18.6172 10.1523 18.1289 10.9102 16.9961L11.9766 15.3945L13.5977 17.0156C14.4844 17.9063 15.2617 18.6641 15.3203 18.6953C15.457 18.7656 15.793 18.7656 15.9297 18.6953C16.0586 18.625 18.6445 16.0313 18.707 15.9102C18.7695 15.7891 18.7617 15.4453 18.6953 15.3203C18.6641 15.2617 17.9062 14.4844 17.0156 13.5977L15.3945 11.9766L16.9961 10.9102C18.1289 10.1523 18.6172 9.80469 18.6719 9.71484C18.8359 9.44922 18.7461 9.00781 18.5 8.84766C18.4453 8.8125 15.5664 7.92969 12.1016 6.89063C7.44922 5.49609 5.75 5 5.60547 5C5.48047 5 5.36719 5.02734 5.28125 5.07813ZM11.6953 8.12109L16.6172 9.59766L15.2617 10.5039C14.3125 11.1367 13.8789 11.4453 13.8281 11.5352C13.7422 11.6758 13.7227 12.0195 13.793 12.1602C13.8164 12.207 14.5938 13.0078 15.5234 13.9375L17.207 15.625L16.4141 16.4141L15.625 17.207L13.9375 15.5234C13.0078 14.5938 12.207 13.8164 12.1602 13.793C12.0195 13.7227 11.6758 13.7422 11.5352 13.8281C11.4453 13.8789 11.1367 14.3125 10.5039 15.2617L9.59766 16.6172L8.12109 11.6953C7.30859 8.99219 6.63672 6.73828 6.62109 6.6875C6.60156 6.61328 6.61328 6.60156 6.6875 6.62109C6.73828 6.63672 8.99219 7.30859 11.6953 8.12109Z" fill="white"/>
<path d="M2.83203 7.54311C2.71094 7.60952 1.36719 8.95327 1.30469 9.07046C1.27344 9.12905 1.25 9.26968 1.25 9.38296C1.25 9.76186 1.48828 10.0001 1.86719 10.0001C1.98047 10.0001 2.11328 9.98061 2.16016 9.95718C2.28125 9.89468 3.62891 8.55483 3.69531 8.42983C3.72656 8.37124 3.75 8.23061 3.75 8.11733C3.75 7.73452 3.51172 7.50014 3.125 7.50014C3.00781 7.50014 2.875 7.52358 2.83203 7.54311Z" fill="white"/>
</svg>
